# xmcd CD database file
#
# Track frame offsets:
#	150
#	14473
#	28282
#	51661
#	73039
#	89475
#	105143
#	121782
#	133957
#	146440
#	159048
#	173035
#	187833
#	200489
#
# Disc length: 2890 seconds
#
# Revision: 0
# Processed by: cddbd v1.5.2PL0 Copyright (c) Steve Scherf et al.
# Submitted via: CDex 1.51
#
DISCID=bd0b480e
DTITLE=don pedigo - What I Was running from
DYEAR=2006
DGENRE=Country
TTITLE0=What I Was Running From
TTITLE1=right where you belong
TTITLE2=twlight
TTITLE3=seashells and blacktop
TTITLE4=indiana
TTITLE5=death of a tiny town
TTITLE6=where do we go
TTITLE7=just my luck
TTITLE8=i just do
TTITLE9=joes
TTITLE10=on your side
TTITLE11=worry in a hurry
TTITLE12=amazing grace
TTITLE13=down in the food
EXTD=YEAR: 2006
EXTT0=
EXTT1=
EXTT2=
EXTT3=
EXTT4=
EXTT5=
EXTT6=
EXTT7=
EXTT8=
EXTT9=
EXTT10=
EXTT11=
EXTT12=
EXTT13=
PLAYORDER=
